<svg width="991" height="326" viewBox="0 0 991 326" fill="none" xmlns="http://www.w3.org/2000/svg">
<path d="M323.169 90.1028H344.987L370.201 174.659L395.331 90.1028H414.602L379.455 213.711H360.863L323.169 90.1028ZM314.34 90.1028H335.139L338.365 171.603V213.711H314.34V90.1028ZM405.094 90.1028H425.978V213.711H402.037V171.603L405.094 90.1028Z" fill="white"/>
<path d="M442.363 170.924V164.726C442.363 157.538 443.212 151.171 444.91 145.625C446.664 140.078 449.155 135.437 452.381 131.702C455.607 127.91 459.484 125.052 464.011 123.127C468.596 121.146 473.718 120.156 479.377 120.156C485.094 120.156 490.216 121.146 494.744 123.127C499.328 125.052 503.233 127.91 506.459 131.702C509.742 135.437 512.26 140.078 514.015 145.625C515.769 151.171 516.647 157.538 516.647 164.726V170.924C516.647 178.055 515.769 184.394 514.015 189.94C512.26 195.487 509.742 200.156 506.459 203.948C503.233 207.74 499.356 210.598 494.829 212.523C490.301 214.447 485.207 215.409 479.547 215.409C473.888 215.409 468.765 214.447 464.181 212.523C459.653 210.598 455.748 207.74 452.465 203.948C449.183 200.156 446.664 195.487 444.91 189.94C443.212 184.394 442.363 178.055 442.363 170.924ZM466.134 164.726V170.924C466.134 175.168 466.417 178.847 466.983 181.96C467.605 185.073 468.482 187.648 469.614 189.686C470.803 191.723 472.218 193.223 473.859 194.185C475.501 195.147 477.397 195.628 479.547 195.628C481.698 195.628 483.622 195.147 485.32 194.185C487.018 193.223 488.405 191.723 489.48 189.686C490.612 187.648 491.433 185.073 491.942 181.96C492.508 178.847 492.791 175.168 492.791 170.924V164.726C492.791 160.595 492.48 156.972 491.857 153.86C491.235 150.69 490.357 148.115 489.225 146.134C488.093 144.097 486.679 142.568 484.981 141.55C483.339 140.474 481.472 139.937 479.377 139.937C477.283 139.937 475.416 140.474 473.774 141.55C472.19 142.568 470.803 144.097 469.614 146.134C468.482 148.115 467.605 150.69 466.983 153.86C466.417 156.972 466.134 160.595 466.134 164.726Z" fill="white"/>
<path d="M557.397 195.374L572.169 121.854H596.958L571.744 213.711H556.887L557.397 195.374ZM548.652 121.854L563.679 195.459L563.934 213.711H548.992L523.778 121.854H548.652Z" fill="white"/>
<path d="M633.379 121.854V213.711H609.523V121.854H633.379ZM608.419 98.083C608.419 94.4042 609.579 91.3762 611.9 88.9992C614.277 86.5655 617.446 85.3486 621.408 85.3486C625.427 85.3486 628.596 86.5655 630.917 88.9992C633.237 91.3762 634.397 94.4042 634.397 98.083C634.397 101.705 633.209 104.733 630.832 107.167C628.511 109.544 625.398 110.732 621.493 110.732C617.475 110.732 614.277 109.544 611.9 107.167C609.579 104.733 608.419 101.705 608.419 98.083Z" fill="white"/>
<path d="M689.24 215.409C682.958 215.409 677.383 214.447 672.515 212.523C667.705 210.598 663.63 207.825 660.29 204.203C656.951 200.524 654.404 196.081 652.65 190.874C650.895 185.667 650.018 179.724 650.018 173.046V165.49C650.018 158.019 650.867 151.482 652.565 145.879C654.263 140.22 656.668 135.465 659.781 131.617C662.894 127.768 666.714 124.91 671.242 123.042C675.826 121.118 681.005 120.156 686.778 120.156C692.551 120.156 697.616 121.118 701.974 123.042C706.389 124.91 710.039 127.74 712.926 131.532C715.812 135.267 717.991 139.908 719.463 145.455C720.934 151.001 721.67 157.453 721.67 164.811V175.678H660.121V158.953H698.324V156.831C698.324 153.096 697.928 149.983 697.135 147.492C696.343 144.946 695.098 143.049 693.4 141.804C691.702 140.559 689.438 139.937 686.608 139.937C684.231 139.937 682.222 140.418 680.581 141.38C678.939 142.342 677.638 143.842 676.675 145.879C675.713 147.917 675.006 150.577 674.553 153.86C674.1 157.086 673.874 160.963 673.874 165.49V173.046C673.874 177.291 674.242 180.856 674.977 183.743C675.713 186.573 676.789 188.893 678.204 190.704C679.675 192.459 681.458 193.732 683.552 194.525C685.646 195.26 688.08 195.628 690.853 195.628C695.041 195.628 698.805 194.893 702.144 193.421C705.54 191.893 708.426 189.827 710.804 187.224L720.312 201.656C718.671 203.807 716.407 205.957 713.52 208.108C710.634 210.259 707.181 212.013 703.163 213.372C699.144 214.73 694.504 215.409 689.24 215.409Z" fill="white"/>
<path d="M820.574 148.766V199.703C818.819 201.571 816.244 203.75 812.848 206.24C809.509 208.674 805.123 210.825 799.689 212.692C794.313 214.503 787.747 215.409 779.994 215.409C773.145 215.409 766.92 214.334 761.317 212.183C755.77 210.032 750.988 206.778 746.969 202.42C743.007 198.005 739.979 192.515 737.885 185.95C735.791 179.328 734.744 171.49 734.744 162.434V141.38C734.744 132.438 735.735 124.655 737.715 118.034C739.753 111.355 742.696 105.809 746.545 101.394C750.393 96.9794 754.978 93.6967 760.298 91.546C765.675 89.3953 771.73 88.32 778.465 88.32C787.747 88.32 795.36 89.8764 801.302 92.9893C807.302 96.1021 811.83 100.715 814.886 106.827C817.999 112.94 819.866 120.439 820.489 129.325H796.463C796.067 124.118 795.19 120.043 793.832 117.1C792.53 114.157 790.69 112.063 788.313 110.817C785.936 109.516 782.852 108.865 779.06 108.865C775.777 108.865 772.919 109.459 770.485 110.648C768.052 111.78 766.014 113.647 764.373 116.251C762.731 118.854 761.515 122.193 760.722 126.268C759.93 130.343 759.534 135.324 759.534 141.21V162.434C759.534 168.264 759.986 173.244 760.892 177.376C761.798 181.507 763.128 184.875 764.882 187.478C766.693 190.082 768.957 191.978 771.674 193.166C774.447 194.298 777.701 194.864 781.437 194.864C784.436 194.864 786.842 194.553 788.653 193.93C790.464 193.308 791.907 192.657 792.983 191.978C794.115 191.242 795.048 190.676 795.784 190.28V167.528H778.041V148.766H820.574Z" fill="white"/>
<path d="M874.313 215.409C868.031 215.409 862.456 214.447 857.588 212.523C852.778 210.598 848.703 207.825 845.363 204.203C842.024 200.524 839.477 196.081 837.723 190.874C835.968 185.667 835.091 179.724 835.091 173.046V165.49C835.091 158.019 835.94 151.482 837.638 145.879C839.336 140.22 841.741 135.465 844.854 131.617C847.967 127.768 851.787 124.91 856.315 123.042C860.899 121.118 866.078 120.156 871.851 120.156C877.624 120.156 882.689 121.118 887.047 123.042C891.462 124.91 895.112 127.74 897.999 131.532C900.885 135.267 903.064 139.908 904.536 145.455C906.007 151.001 906.743 157.453 906.743 164.811V175.678H845.194V158.953H883.397V156.831C883.397 153.096 883.001 149.983 882.208 147.492C881.416 144.946 880.171 143.049 878.473 141.804C876.775 140.559 874.511 139.937 871.681 139.937C869.304 139.937 867.295 140.418 865.654 141.38C864.012 142.342 862.71 143.842 861.748 145.879C860.786 147.917 860.079 150.577 859.626 153.86C859.173 157.086 858.947 160.963 858.947 165.49V173.046C858.947 177.291 859.315 180.856 860.05 183.743C860.786 186.573 861.861 188.893 863.276 190.704C864.748 192.459 866.531 193.732 868.625 194.525C870.719 195.26 873.153 195.628 875.926 195.628C880.114 195.628 883.878 194.893 887.217 193.421C890.613 191.893 893.499 189.827 895.876 187.224L905.385 201.656C903.743 203.807 901.48 205.957 898.593 208.108C895.707 210.259 892.254 212.013 888.236 213.372C884.217 214.73 879.576 215.409 874.313 215.409Z" fill="white"/>
<path d="M960.567 121.854V139.767H913.705V121.854H960.567ZM924.486 99.1867H948.172V185.696C948.172 188.242 948.427 190.195 948.936 191.553C949.446 192.912 950.21 193.874 951.229 194.44C952.304 194.949 953.719 195.204 955.473 195.204C956.662 195.204 957.765 195.147 958.784 195.034C959.803 194.864 960.567 194.694 961.076 194.525V213.117C959.209 213.853 957.228 214.419 955.134 214.815C953.096 215.211 950.663 215.409 947.833 215.409C943.079 215.409 938.947 214.503 935.438 212.692C931.985 210.881 929.297 207.995 927.373 204.033C925.448 200.015 924.486 194.751 924.486 188.242V99.1867Z" fill="white"/>
<rect x="215.578" y="239.067" width="775.156" height="32.6" fill="#96282C"/>
<path d="M255.875 285.25H52.1251C44.6232 285.25 38.5417 279.168 38.5417 271.667V176.583H269.458V271.667C269.458 279.168 263.377 285.25 255.875 285.25Z" fill="url(#paint0_radial_602_43)"/>
<path d="M269.458 135.833H38.5417V176.583H269.458V135.833Z" fill="#363636"/>
<path d="M90.5659 135.833H123.709L95.1842 176.583H62.0409L90.5659 135.833Z" fill="#DEDEDE"/>
<path d="M158.483 135.833H191.626L163.101 176.583H129.958L158.483 135.833Z" fill="#DEDEDE"/>
<path d="M259.542 135.833L231.017 176.583H197.874L226.399 135.833H259.542Z" fill="#DEDEDE"/>
<path d="M269.458 176.583H38.5417V196.958H269.458V176.583Z" fill="url(#paint1_linear_602_43)"/>
<path d="M55.5208 210.542H252.479C254.354 210.542 255.875 209.021 255.875 207.146C255.875 205.27 254.354 203.75 252.479 203.75H55.5208C53.6454 203.75 52.125 205.27 52.125 207.146C52.125 209.021 53.6454 210.542 55.5208 210.542ZM252.479 237.708H55.5208C53.6454 237.708 52.125 239.229 52.125 241.104C52.125 242.979 53.6454 244.5 55.5208 244.5H113.25V268.271C113.25 270.146 114.77 271.666 116.646 271.666C118.521 271.666 120.042 270.146 120.042 268.271V244.5H187.958V268.271C187.958 270.146 189.479 271.666 191.354 271.666C193.23 271.666 194.75 270.146 194.75 268.271V244.5H252.479C254.354 244.5 255.875 242.979 255.875 241.104C255.875 239.229 254.354 237.708 252.479 237.708Z" fill="url(#paint2_radial_602_43)"/>
<path opacity="0.35" d="M269.458 135.833H38.5417V176.583H269.458V135.833Z" fill="url(#paint3_linear_602_43)"/>
<path opacity="0.35" d="M269.458 135.833H38.5417V176.583H269.458V135.833Z" fill="url(#paint4_linear_602_43)"/>
<path d="M42.3041 93.8566L238.161 37.6956C245.372 35.6278 252.894 39.7974 254.962 47.0086L262.45 73.1229L40.4792 136.772L32.991 110.658C30.9232 103.447 35.0928 95.9244 42.3041 93.8566V93.8566Z" fill="#363636"/>
<path d="M90.4571 122.44L122.317 113.305L83.6655 81.9957L51.8058 91.1305L90.4571 122.44Z" fill="#DEDEDE"/>
<path d="M155.739 103.715L187.598 94.5807L148.947 63.2711L117.087 72.4127L155.739 103.715Z" fill="#DEDEDE"/>
<path d="M252.887 75.8629L214.235 44.5533L182.375 53.6881L221.027 84.9977L252.887 75.8629Z" fill="#DEDEDE"/>
<path opacity="0.35" d="M42.3041 93.8566L238.161 37.6956C245.372 35.6278 252.894 39.7974 254.962 47.0086L262.45 73.1229L40.4792 136.772L32.991 110.658C30.9232 103.447 35.0928 95.9244 42.3041 93.8566V93.8566Z" fill="url(#paint5_linear_602_43)"/>
<path opacity="0.35" d="M42.3041 93.8566L238.161 37.6956C245.372 35.6278 252.894 39.7974 254.962 47.0086L262.45 73.1229L40.4792 136.772L32.991 110.658C30.9232 103.447 35.0928 95.9244 42.3041 93.8566V93.8566Z" fill="url(#paint6_linear_602_43)"/>
<defs>
<radialGradient id="paint0_radial_602_43" cx="0" cy="0" r="1" gradientUnits="userSpaceOnUse" gradientTransform="translate(156.547 177.432) scale(318.923 318.923)">
<stop stop-color="#96282C"/>
<stop offset="1" stop-color="#232E21"/>
</radialGradient>
<linearGradient id="paint1_linear_602_43" x1="154" y1="196.958" x2="154" y2="176.583" gradientUnits="userSpaceOnUse">
<stop stop-color="#805957" stop-opacity="0.1"/>
<stop offset="1" stop-color="#232E21"/>
</linearGradient>
<radialGradient id="paint2_radial_602_43" cx="0" cy="0" r="1" gradientUnits="userSpaceOnUse" gradientTransform="translate(154.421 175.313) scale(304.137 304.137)">
<stop stop-color="#B5B5B5"/>
<stop offset="1" stop-color="#636363"/>
</radialGradient>
<linearGradient id="paint3_linear_602_43" x1="154" y1="176.583" x2="154" y2="135.833" gradientUnits="userSpaceOnUse">
<stop stop-color="#2E2121"/>
<stop offset="0.081" stop-color="#472828" stop-opacity="0.6549"/>
<stop offset="0.202" stop-color="#0A0D09" stop-opacity="0.287"/>
<stop offset="0.335" stop-color="#020302" stop-opacity="0.069"/>
<stop offset="0.5" stop-opacity="0"/>
<stop offset="0.665" stop-color="#020302" stop-opacity="0.069"/>
<stop offset="0.798" stop-color="#0A0D09" stop-opacity="0.287"/>
<stop offset="0.919" stop-color="#472828" stop-opacity="0.6549"/>
<stop offset="1" stop-color="#232E21"/>
</linearGradient>
<linearGradient id="paint4_linear_602_43" x1="154" y1="176.583" x2="154" y2="135.833" gradientUnits="userSpaceOnUse">
<stop offset="0.9" stop-color="white" stop-opacity="0"/>
<stop offset="0.91" stop-color="white" stop-opacity="0.073"/>
<stop offset="0.931" stop-color="white" stop-opacity="0.261"/>
<stop offset="0.961" stop-color="white" stop-opacity="0.566"/>
<stop offset="0.998" stop-color="white" stop-opacity="0.98"/>
<stop offset="1" stop-color="white"/>
</linearGradient>
<linearGradient id="paint5_linear_602_43" x1="4707.7" y1="-2329.38" x2="4837.26" y2="-2122.03" gradientUnits="userSpaceOnUse">
<stop stop-color="#2E2121"/>
<stop offset="0.081" stop-color="#472828" stop-opacity="0.6549"/>
<stop offset="0.202" stop-color="#0A0D09" stop-opacity="0.287"/>
<stop offset="0.335" stop-color="#020302" stop-opacity="0.069"/>
<stop offset="0.5" stop-opacity="0"/>
<stop offset="0.665" stop-color="#020302" stop-opacity="0.069"/>
<stop offset="0.798" stop-color="#0A0D09" stop-opacity="0.287"/>
<stop offset="0.919" stop-color="#472828" stop-opacity="0.6549"/>
<stop offset="1" stop-color="#232E21"/>
</linearGradient>
<linearGradient id="paint6_linear_602_43" x1="4837.26" y1="-2122.03" x2="4707.7" y2="-2329.38" gradientUnits="userSpaceOnUse">
<stop offset="0.9" stop-color="white" stop-opacity="0"/>
<stop offset="0.91" stop-color="white" stop-opacity="0.073"/>
<stop offset="0.931" stop-color="white" stop-opacity="0.261"/>
<stop offset="0.961" stop-color="white" stop-opacity="0.566"/>
<stop offset="0.998" stop-color="white" stop-opacity="0.98"/>
<stop offset="1" stop-color="white"/>
</linearGradient>
</defs>
</svg>
