<svg xmlns="http://www.w3.org/2000/svg" xmlns:xlink="http://www.w3.org/1999/xlink" viewBox="0,0,256,256" width="500px" height="500px" fill-rule="nonzero"><g fill="#212121" fill-rule="nonzero" stroke="none" stroke-width="1" stroke-linecap="butt" stroke-linejoin="miter" stroke-miterlimit="10" stroke-dasharray="" stroke-dashoffset="0" font-family="none" font-weight="none" font-size="none" text-anchor="none" style="mix-blend-mode: normal"><g transform="scale(5.12,5.12)"><path d="M19,0c-10.48047,0 -19,8.51953 -19,19c0,10.48047 8.51953,19 19,19c10.48047,0 19,-8.51953 19,-19c0,-1.94141 -0.26953,-3.82812 -0.8125,-5.59375c4.39844,6.28906 4.78516,12.46875 4.65625,18.0625c-0.09375,4.06641 -0.53906,7.81641 0.09375,11.0625c0.63281,3.24609 2.58203,5.98047 6.75,7.40625c0.35156,0.17969 0.77344,0.13672 1.08203,-0.10937c0.30859,-0.24609 0.44141,-0.64844 0.34375,-1.03125c-0.09766,-0.37891 -0.41016,-0.66797 -0.80078,-0.73437c-3.66016,-1.25 -4.86719,-3.13672 -5.40625,-5.90625c-0.53906,-2.76953 -0.15625,-6.44922 -0.0625,-10.625c0.17969,-7.91797 -0.98047,-17.72266 -12.375,-26.84375c-0.58594,-0.51172 -1.19531,-1 -1.84375,-1.4375c-0.01953,-0.01562 -0.04297,-0.01562 -0.0625,-0.03125c-3.01953,-2.02734 -6.65625,-3.21875 -10.5625,-3.21875zM19,2c3.52734,0 6.78906,1.07422 9.5,2.90625c0.55859,0.40625 1.07813,0.8125 1.59375,1.21875c3.61328,3.11719 5.90625,7.72266 5.90625,12.875c0,9.40234 -7.59766,17 -17,17c-9.40234,0 -17,-7.59766 -17,-17c0,-9.40234 7.59766,-17 17,-17zM19,3.5c-1.47266,0 -2.66406,0.14063 -3.625,0.78125c-0.96094,0.64063 -1.4375,1.80078 -1.4375,3.09375c0,1.58594 1.03516,2.82813 2.0625,3.71875c0.51563,0.44531 1.03906,0.79688 1.53125,1.0625c0.49219,0.26563 0.85156,0.46875 1.46875,0.46875c0.61719,0 0.97656,-0.20312 1.46875,-0.46875c0.49219,-0.26562 1.01563,-0.61719 1.53125,-1.0625c1.02734,-0.89062 2.0625,-2.13281 2.0625,-3.71875c0,-1.29297 -0.47656,-2.45312 -1.4375,-3.09375c-0.96094,-0.64062 -2.15234,-0.78125 -3.625,-0.78125zM19,5.5c1.30859,0 2.14844,0.21484 2.53125,0.46875c0.38281,0.25391 0.53125,0.50781 0.53125,1.40625c0,0.60547 -0.57812,1.5 -1.375,2.1875c-0.39844,0.34375 -0.80469,0.65625 -1.15625,0.84375c-0.22266,0.12109 -0.44141,0.19531 -0.53125,0.21875c-0.07812,-0.02344 -0.29297,-0.08984 -0.53125,-0.21875c-0.35156,-0.1875 -0.78906,-0.5 -1.1875,-0.84375c-0.79687,-0.6875 -1.34375,-1.58203 -1.34375,-2.1875c0,-0.89844 0.14844,-1.15234 0.53125,-1.40625c0.38281,-0.25391 1.22266,-0.46875 2.53125,-0.46875zM7.96875,10.6875c-0.58203,0.06641 -1.10937,0.26563 -1.5625,0.625c-0.90234,0.71875 -1.42187,1.81641 -1.875,3.21875c-0.45312,1.39844 -0.65625,2.57813 -0.34375,3.6875c0.3125,1.10938 1.26953,1.94531 2.5,2.34375c1.50781,0.48828 2.99219,-0.14062 4.15625,-0.84375c0.58203,-0.35156 1.09375,-0.73828 1.5,-1.125c0.40625,-0.38672 0.6875,-0.66406 0.875,-1.25c0.19531,-0.58984 0.13281,-1.01172 0.03125,-1.5625c-0.10156,-0.55078 -0.29687,-1.15625 -0.5625,-1.78125c-0.53125,-1.25 -1.36719,-2.63672 -2.875,-3.125c-0.61719,-0.19922 -1.26172,-0.25391 -1.84375,-0.1875zM29.09375,10.6875c-0.30469,0.03125 -0.59766,0.08984 -0.90625,0.1875c0,0.01172 0,0.01953 0,0.03125c-1.50391,0.48828 -2.34375,1.83984 -2.875,3.09375c-0.26562,0.625 -0.46094,1.23047 -0.5625,1.78125c-0.10156,0.55078 -0.19531,0.97266 0,1.5625c0.1875,0.58984 0.5,0.86328 0.90625,1.25c0.40625,0.38672 0.91797,0.77344 1.5,1.125c1.16406,0.70313 2.64844,1.33203 4.15625,0.84375c1.23047,-0.39844 2.1875,-1.23437 2.5,-2.34375c0.3125,-1.10937 0.07813,-2.28906 -0.375,-3.6875c-0.45312,-1.40234 -0.9375,-2.5 -1.84375,-3.21875c-0.45312,-0.35937 -1.01172,-0.55859 -1.59375,-0.625c-0.28906,-0.03125 -0.60156,-0.03125 -0.90625,0zM8.25,12.625c0.23047,-0.02344 0.50781,0.01953 0.9375,0.15625c0.57422,0.1875 1.24609,1.03125 1.65625,2c0.20703,0.48438 0.36719,0.98438 0.4375,1.375c0.05469,0.29297 0.02344,0.55469 0.03125,0.59375c-0.07031,0.08984 -0.21094,0.24609 -0.375,0.40625c-0.28906,0.27734 -0.67578,0.57031 -1.125,0.84375c-0.90234,0.54688 -1.95312,0.84375 -2.53125,0.65625c-0.85547,-0.27734 -1.0625,-0.52734 -1.1875,-0.96875c-0.125,-0.44141 -0.05859,-1.28906 0.34375,-2.53125c0.40234,-1.24609 0.85938,-1.99609 1.21875,-2.28125c0.17969,-0.14453 0.36328,-0.22656 0.59375,-0.25zM29.375,12.625c0.46875,-0.07812 0.69922,0.03516 0.96875,0.25c0.35938,0.28516 0.78516,1.03516 1.1875,2.28125c0.40234,1.24219 0.5,2.08984 0.375,2.53125c-0.125,0.44141 -0.36328,0.69141 -1.21875,0.96875c-0.57422,0.1875 -1.59766,-0.07812 -2.5,-0.625c-0.44922,-0.27344 -0.83594,-0.59766 -1.125,-0.875c-0.1875,-0.17969 -0.31641,-0.39453 -0.375,-0.46875c0,-0.10547 -0.01172,-0.30469 0.03125,-0.53125c0.07031,-0.39062 0.23047,-0.89062 0.4375,-1.375c0.41016,-0.96875 1.08594,-1.8125 1.65625,-2c0.21484,-0.07031 0.40625,-0.12891 0.5625,-0.15625zM19,17c-1.10547,0 -2,0.89453 -2,2c0,1.10547 0.89453,2 2,2c1.10547,0 2,-0.89453 2,-2c0,-1.10547 -0.89453,-2 -2,-2zM25.125,23.53125c-0.31641,0.00781 -0.62891,0.02734 -0.90625,0.0625c-0.55469,0.07031 -0.96484,0.10938 -1.46875,0.46875c-0.5,0.35938 -0.69141,0.75 -0.9375,1.25c-0.24609,0.5 -0.46484,1.08984 -0.625,1.75c-0.32422,1.32031 -0.45312,2.92578 0.46875,4.21875c0.75,1.05469 1.81641,1.72266 2.96875,1.6875c1.15234,-0.03516 2.20703,-0.61719 3.40625,-1.46875c1.20313,-0.85547 2.11719,-1.67187 2.53125,-2.75c0.41406,-1.07812 0.125,-2.28906 -0.625,-3.34375c0,-0.01172 0,-0.01953 0,-0.03125c-0.91797,-1.28906 -2.49219,-1.68359 -3.84375,-1.8125c-0.33984,-0.03125 -0.65234,-0.03906 -0.96875,-0.03125zM12.75,23.6875c-0.31641,0.01172 -0.63281,0.04688 -0.96875,0.09375c-1.34766,0.18359 -2.88672,0.63672 -3.75,1.96875c-0.70703,1.08203 -0.95703,2.31641 -0.5,3.375c0.45703,1.05859 1.39453,1.85156 2.625,2.65625c1.23438,0.80469 2.3125,1.32422 3.46875,1.3125c1.15625,-0.01172 2.19531,-0.73047 2.90625,-1.8125c0.86328,-1.32422 0.65625,-2.91406 0.28125,-4.21875c-0.1875,-0.65234 -0.41797,-1.25781 -0.6875,-1.75c-0.26953,-0.49219 -0.48047,-0.85156 -1,-1.1875c-0.51562,-0.33594 -0.91016,-0.35937 -1.46875,-0.40625c-0.27734,-0.02344 -0.58984,-0.04297 -0.90625,-0.03125zM25.125,25.53125c0.24609,-0.00781 0.51953,0.00781 0.78125,0.03125c1.05078,0.10156 2.05859,0.51172 2.40625,1c0.52344,0.73438 0.53906,1.03906 0.375,1.46875c-0.16406,0.42969 -0.74609,1.08594 -1.8125,1.84375c-1.06641,0.75391 -1.85547,1.07813 -2.3125,1.09375c-0.45703,0.01563 -0.76172,-0.11328 -1.28125,-0.84375c-0.35156,-0.49219 -0.40625,-1.57031 -0.15625,-2.59375c0.125,-0.51172 0.32422,-0.98437 0.5,-1.34375c0.11719,-0.23437 0.26563,-0.42969 0.3125,-0.5c0.00781,-0.00391 0.03125,-0.00391 0.03125,0c0.10938,-0.03125 0.30078,-0.07031 0.5,-0.09375c0.19922,-0.02344 0.41016,-0.05469 0.65625,-0.0625zM12.78125,25.6875c0.24609,-0.01172 0.48828,-0.01562 0.6875,0c0.22656,0.01953 0.42969,0.0625 0.53125,0.09375c0.01953,0.04297 0.19922,0.23828 0.34375,0.5c0.19141,0.35156 0.41797,0.83594 0.5625,1.34375c0.29297,1.01172 0.26172,2.0625 -0.0625,2.5625c-0.49609,0.75391 -0.78906,0.90234 -1.25,0.90625c-0.46094,0.00391 -1.24609,-0.28516 -2.34375,-1c-1.08984,-0.71484 -1.69531,-1.32812 -1.875,-1.75c-0.17969,-0.42187 -0.17578,-0.75 0.3125,-1.5c0.33203,-0.50781 1.30078,-0.95312 2.34375,-1.09375c0.26172,-0.03516 0.50391,-0.05078 0.75,-0.0625z"></path></g></g></svg>